<svg width="36" height="36" viewBox="0 0 36 36" fill="none" xmlns="http://www.w3.org/2000/svg">
<path d="M20 3L17.1132 8H22.8868L20 3ZM20 21H20.5V7.5H20H19.5V21H20Z" fill="#0000FF"/>
<path d="M2 29L7.74148 29.6073L5.39664 24.3314L2 29ZM20 21L19.7969 20.5431L5.90908 26.7155L6.11215 27.1724L6.31522 27.6293L20.2031 21.4569L20 21Z" fill="#FF0000"/>
<path d="M35 33L32.899 27.6224L29.2923 32.1307L35 33ZM20 21L19.6877 21.3904L31.1737 30.5793L31.4861 30.1889L31.7984 29.7984L20.3123 20.6096L20 21Z" fill="#00FF00"/>
<circle cx="20" cy="21" r="1" fill="#EFEFEF"/>
</svg>
